<svg width="17" height="16" viewBox="0 0 17 16" fill="none" xmlns="http://www.w3.org/2000/svg">
<path d="M8.5 15C4.6339 15 1.5 11.8661 1.5 8C1.5 4.1339 4.6339 1 8.5 1C12.3661 1 15.5 4.1339 15.5 8C15.5 11.8661 12.3661 15 8.5 15ZM7.8 10.1V11.5H9.2V10.1H7.8ZM9.2 8.9485C9.76257 8.77894 10.2455 8.41297 10.5609 7.91722C10.8763 7.42147 11.0031 6.82894 10.9183 6.24753C10.8335 5.66612 10.5427 5.13451 10.0988 4.74952C9.65494 4.36453 9.08756 4.15178 8.5 4.15C7.9336 4.14996 7.38466 4.34611 6.94655 4.7051C6.50844 5.06408 6.20821 5.56374 6.0969 6.1191L7.4703 6.3942C7.50928 6.1992 7.60282 6.01928 7.74006 5.87537C7.87729 5.73146 8.05257 5.62948 8.2455 5.58129C8.43843 5.53311 8.64107 5.5407 8.82985 5.60318C9.01864 5.66566 9.1858 5.78047 9.31188 5.93424C9.43797 6.08801 9.5178 6.27442 9.54208 6.47179C9.56636 6.66916 9.53409 6.86936 9.44904 7.04911C9.36399 7.22886 9.22964 7.38075 9.06163 7.48713C8.89362 7.59351 8.69885 7.64999 8.5 7.65C8.31435 7.65 8.1363 7.72375 8.00503 7.85503C7.87375 7.9863 7.8 8.16435 7.8 8.35V9.4H9.2V8.9485Z" fill="#E2E8F0"/>
</svg>
