<svg width="16" height="16" viewBox="0 0 16 16" fill="none" xmlns="http://www.w3.org/2000/svg">
<circle cx="8" cy="8" r="7.5" stroke="#F0F3F8"/>
<path d="M7.99998 4.97322C9.04644 4.97322 9.89477 4.4833 9.89477 3.87895C9.89477 3.2746 9.04644 2.78468 7.99998 2.78468C6.95351 2.78468 6.10519 3.2746 6.10519 3.87895C6.10519 4.4833 6.95351 4.97322 7.99998 4.97322Z" fill="#E6007A"/>
<path d="M7.99998 13.2153C9.04644 13.2153 9.89477 12.7254 9.89477 12.1211C9.89477 11.5167 9.04644 11.0268 7.99998 11.0268C6.95351 11.0268 6.10519 11.5167 6.10519 12.1211C6.10519 12.7254 6.95351 13.2153 7.99998 13.2153Z" fill="#E6007A"/>
<path d="M5.35904 6.48665C5.88227 5.58716 5.87896 4.61302 5.35164 4.31084C4.82432 4.00867 3.97267 4.49289 3.44944 5.39238C2.92621 6.29188 2.92953 7.26602 3.45685 7.56819C3.98417 7.87037 4.83581 7.38614 5.35904 6.48665Z" fill="#E6007A"/>
<path d="M12.5506 10.6077C13.0738 9.7082 13.0705 8.73406 12.5432 8.43188C12.0158 8.12971 11.1642 8.61393 10.641 9.51342C10.1177 10.4129 10.1211 11.3871 10.6484 11.6892C11.1757 11.9914 12.0273 11.5072 12.5506 10.6077Z" fill="#E6007A"/>
<path d="M5.35163 11.6892C5.87895 11.387 5.88227 10.4129 5.35904 9.51337C4.8358 8.61388 3.98416 8.12966 3.45684 8.43183C2.92952 8.734 2.92621 9.70815 3.44944 10.6076C3.97267 11.5071 4.82431 11.9914 5.35163 11.6892Z" fill="#E6007A"/>
<path d="M12.5431 7.56822C13.0704 7.26605 13.0738 6.29191 12.5505 5.39242C12.0273 4.49292 11.1756 4.0087 10.6483 4.31088C10.121 4.61305 10.1177 5.58719 10.6409 6.48668C11.1642 7.38618 12.0158 7.8704 12.5431 7.56822Z" fill="#E6007A"/>
</svg>
