<svg width="20" height="20" viewBox="0 0 20 20" fill="none" xmlns="http://www.w3.org/2000/svg">
<path d="M1.64828 14.7845L9.99505 19.6037L18.3418 14.7845V5.14593L9.99505 0.32666L1.64828 5.14593V14.7845Z" fill="#F0F3F8"/>
<path d="M9.1405 1.47937L3.07916 4.97706C3.0891 5.08614 3.0891 5.1959 3.07916 5.30497L9.13057 8.80267C9.37938 8.61871 9.68065 8.51943 9.99009 8.51943C10.2995 8.51943 10.6008 8.61871 10.8496 8.80267L16.901 5.30497C16.8911 5.1959 16.8911 5.08614 16.901 4.97706L10.8595 1.47937C10.6107 1.66333 10.3095 1.76261 10 1.76261C9.69059 1.76261 9.38932 1.66333 9.1405 1.47937ZM17.4873 6.26883L11.4259 9.80627C11.4588 10.1131 11.3938 10.4224 11.2404 10.6901C11.0869 10.9578 10.8527 11.1701 10.5714 11.2968L10.5813 18.2524C10.6793 18.2956 10.7726 18.3489 10.8595 18.4114L16.9109 14.9137C16.8781 14.6069 16.9431 14.2976 17.0965 14.0299C17.25 13.7622 17.4841 13.5499 17.7655 13.4232V6.42781C17.6686 6.38239 17.5756 6.32923 17.4873 6.26883ZM2.50284 6.30857C2.41585 6.37106 2.3226 6.42434 2.22461 6.46756V13.4629C2.50941 13.5851 2.74678 13.7966 2.90092 14.0654C3.05506 14.3343 3.11762 14.6459 3.07916 14.9534L9.13057 18.4511C9.21756 18.3887 9.3108 18.3354 9.40879 18.2921V11.2968C9.12399 11.1746 8.88662 10.9631 8.73248 10.6943C8.57834 10.4254 8.51579 10.1138 8.55424 9.80627L2.50284 6.30857Z" fill="#FBFCFE"/>
<path d="M9.99508 1.37076L17.4575 5.68326V14.2983L9.99508 18.6108L2.53268 14.2983V5.67332L9.99508 1.37076ZM9.99508 0.34729L1.64832 5.16656V14.8051L9.99508 19.6244L18.3419 14.8051V5.16656L9.99508 0.34729Z" fill="#F0F3F8"/>
<path d="M10.0547 11.6047H9.93542C9.73041 11.6052 9.52731 11.5652 9.3378 11.487C9.14829 11.4088 8.9761 11.2939 8.83113 11.1489C8.68616 11.004 8.57127 10.8318 8.49305 10.6423C8.41484 10.4528 8.37485 10.2497 8.37537 10.0447V9.92541C8.37485 9.7204 8.41484 9.5173 8.49305 9.32779C8.57127 9.13828 8.68616 8.96609 8.83113 8.82112C8.9761 8.67615 9.14829 8.56126 9.3378 8.48305C9.52731 8.40483 9.73041 8.36484 9.93542 8.36536H10.0547C10.2597 8.36484 10.4628 8.40483 10.6523 8.48305C10.8418 8.56126 11.014 8.67615 11.159 8.82112C11.3039 8.96609 11.4188 9.13828 11.497 9.32779C11.5752 9.5173 11.6152 9.7204 11.6147 9.92541V10.0447C11.6152 10.2497 11.5752 10.4528 11.497 10.6423C11.4188 10.8318 11.3039 11.004 11.159 11.1489C11.014 11.2939 10.8418 11.4088 10.6523 11.487C10.4628 11.5652 10.2597 11.6052 10.0547 11.6047Z" fill="#F0F3F8"/>
<path d="M10.0546 18.0139H9.93538C9.65822 18.0131 9.38587 18.0863 9.14653 18.2261C8.90719 18.3659 8.70955 18.5671 8.57407 18.8089L9.995 19.6237L11.4159 18.8089C11.2805 18.5671 11.0828 18.3659 10.8435 18.2261C10.6041 18.0863 10.3318 18.0131 10.0546 18.0139Z" fill="#F0F3F8"/>
<path d="M18.3517 13.1946H18.2921C18.0871 13.1941 17.884 13.2341 17.6945 13.3123C17.505 13.3905 17.3328 13.5054 17.1878 13.6503C17.0429 13.7953 16.928 13.9675 16.8498 14.157C16.7715 14.3465 16.7316 14.5496 16.7321 14.7546V14.8739C16.7306 15.1387 16.7992 15.3992 16.9308 15.6291L18.3517 14.8043V13.1946Z" fill="#F0F3F8"/>
<path d="M16.9308 4.35095C16.8004 4.58126 16.7319 4.84146 16.7321 5.10614V5.22538C16.7315 5.43039 16.7715 5.63349 16.8497 5.823C16.928 6.01251 17.0429 6.1847 17.1878 6.32967C17.3328 6.47464 17.505 6.58953 17.6945 6.66774C17.884 6.74596 18.0871 6.78595 18.2921 6.78543H18.3517V5.16576L16.9308 4.35095Z" fill="#F0F3F8"/>
<path d="M9.995 0.346558L8.57407 1.16136C8.7089 1.40445 8.90613 1.60719 9.14542 1.74867C9.38471 1.89014 9.6574 1.96524 9.93538 1.96623H10.0546C10.3318 1.96706 10.6041 1.89381 10.8435 1.75404C11.0828 1.61428 11.2805 1.41309 11.4159 1.1713L9.995 0.346558Z" fill="#F0F3F8"/>
<path d="M3.06925 4.34106L1.64832 5.1658V6.78547H1.70794C1.91295 6.786 2.11605 6.746 2.30556 6.66779C2.49507 6.58958 2.66726 6.47468 2.81223 6.32972C2.9572 6.18475 3.07209 6.01256 3.1503 5.82305C3.22852 5.63354 3.26851 5.43044 3.26799 5.22542V5.10618C3.26462 4.83882 3.19642 4.57627 3.06925 4.34106Z" fill="#F0F3F8"/>
<path d="M1.70794 13.1946H1.64832V14.8043L3.06925 15.6291C3.19969 15.3988 3.26817 15.1386 3.26799 14.8739V14.7546C3.26851 14.5496 3.22852 14.3465 3.1503 14.157C3.07209 13.9675 2.9572 13.7953 2.81223 13.6503C2.66726 13.5054 2.49507 13.3905 2.30556 13.3123C2.11605 13.2341 1.91295 13.1941 1.70794 13.1946Z" fill="#F0F3F8"/>
<path d="M9.99508 19.6733V10.0248L1.64832 5.20557V14.854L9.99508 19.6733Z" fill="black" fill-opacity="0.06"/>
<path d="M18.3518 14.7646V5.1261L10.005 9.94536V19.5938L18.3518 14.7646Z" fill="black" fill-opacity="0.02"/>
</svg>
