<svg width="16" height="16" viewBox="0 0 16 16" fill="none" xmlns="http://www.w3.org/2000/svg">
<path d="M13.489 9.37221C12.7312 9.37221 12.1168 8.75783 12.1168 7.99995C12.1168 7.24207 12.7312 6.62769 13.489 6.62769C14.2469 6.62769 14.8613 7.24207 14.8613 7.99995C14.8613 8.75783 14.2469 9.37221 13.489 9.37221Z" fill="#A1A8B3"/>
<path d="M7.99999 9.37221C7.24211 9.37221 6.62773 8.75783 6.62773 7.99995C6.62773 7.24207 7.24211 6.62769 7.99999 6.62769C8.75787 6.62769 9.37225 7.24207 9.37225 7.99995C9.37225 8.75783 8.75787 9.37221 7.99999 9.37221Z" fill="#A1A8B3"/>
<path d="M2.51094 9.37221C1.75306 9.37221 1.13868 8.75783 1.13868 7.99995C1.13868 7.24207 1.75306 6.62768 2.51094 6.62769C3.26882 6.62769 3.8832 7.24207 3.8832 7.99995C3.8832 8.75783 3.26882 9.37221 2.51094 9.37221Z" fill="#A1A8B3"/>
</svg>
