<svg width="24" height="24" viewBox="0 0 24 24" fill="none" xmlns="http://www.w3.org/2000/svg">
<path d="M15.8179 3.81474C15.8179 3.92983 15.7874 3.96913 15.6708 3.96632C15.5662 3.96235 15.4617 3.96336 15.3572 3.96437C15.2396 3.96551 15.1221 3.96665 15.0045 3.9607C14.8712 3.95509 14.8379 4.00562 14.8435 4.12912C14.8485 4.25544 14.8475 4.38176 14.8465 4.50807C14.8458 4.59202 14.8451 4.60939 14.8463 4.69333C14.8463 4.77193 14.8268 4.8 14.7435 4.79158C13.662 4.79158 12.6723 4.79158 11.5593 4.79158C11.4372 4.79158 11.3983 4.75509 11.4039 4.63158C11.4122 4.44632 11.4094 4.25824 11.4067 4.07018C11.4039 3.98596 11.4344 3.95509 11.5205 3.95509C11.6216 3.95749 11.7227 3.95681 11.8238 3.95612C11.9586 3.95521 12.0936 3.95429 12.2284 3.9607C12.3561 3.96632 12.3811 3.9214 12.3811 3.8007C12.3783 2.59649 12.3783 1.38948 12.3783 0.185264C12.3783 0.0939794 12.3783 0.048317 12.4009 0.0255402C12.4235 0.0028092 12.4686 0.0028092 12.5587 0.0028092C13.594 0.0028092 14.6272 0.00561473 15.6624 0C15.7818 0 15.8207 0.0280691 15.8207 0.154386C15.8039 1.37826 15.8068 2.59649 15.8179 3.81474Z" fill="#EA298A"/>
<path fill-rule="evenodd" clip-rule="evenodd" d="M15.4986 14.6961C15.4744 14.6918 15.4478 14.6871 15.4348 14.6498C15.4764 14.6358 15.5153 14.6218 15.5569 14.6105C16.6813 14.2147 17.5641 13.5298 18.1026 12.4351C18.1387 12.3621 18.1831 12.3481 18.2553 12.3481C18.3969 12.3495 18.5378 12.3495 18.6787 12.3495L18.84 12.3495C18.8675 12.3496 18.895 12.3497 18.9226 12.3497C18.9416 12.3498 18.9607 12.3499 18.9797 12.35C19.0204 12.3502 19.0612 12.3505 19.102 12.3509C19.1853 12.3537 19.2269 12.3256 19.2575 12.247C19.3186 12.0898 19.3741 11.9326 19.4157 11.7698C19.5906 11.0961 19.549 10.4168 19.4407 9.74035C19.1631 8.01403 18.2387 6.79859 16.623 6.14456C15.6485 5.74877 14.6242 5.61122 13.5831 5.60842C11.3755 5.60168 9.16953 5.60213 6.96256 5.60257C6.41123 5.60269 5.85905 5.6028 5.30755 5.6028C5.28261 5.6028 5.25768 5.6025 5.23275 5.60218C5.14974 5.60107 5.10905 5.60054 5.08954 5.62075C5.0645 5.6467 5.07435 5.70718 5.07435 5.84421C5.07435 7.95509 5.07158 10.0677 5.07713 12.1796C5.07991 12.3172 5.04104 12.3565 4.90779 12.3509C4.76033 12.3445 4.61196 12.3454 4.46373 12.3463C4.35258 12.347 4.24105 12.3477 4.13048 12.3453C4.03331 12.3425 4 12.3733 4 12.4716C4.00278 13.7403 4.00278 15.0119 4 16.2835C4 16.3874 4.03887 16.407 4.13048 16.407C4.2501 16.4045 4.36973 16.4048 4.48936 16.4052C4.63323 16.4056 4.7778 16.406 4.92167 16.4014C5.04382 16.3958 5.07713 16.4295 5.07713 16.5558C5.07158 17.5719 5.07713 18.5853 5.07158 19.5986C5.07158 19.7305 5.09934 19.7726 5.23814 19.7726C6.46241 19.767 7.68667 19.767 8.91093 19.7726C9.04141 19.7754 9.08305 19.7418 9.08305 19.6042C9.0775 18.5853 9.08028 17.5663 9.0775 16.5474C9.07472 16.4575 9.08305 16.4042 9.19965 16.4042C10.1715 16.4098 11.1413 16.4098 12.1118 16.4154C12.6337 16.4182 13.1056 16.5502 13.4804 16.9488C13.7164 17.1986 13.894 17.4877 14.0551 17.7881C14.3423 18.3307 14.5838 18.8942 14.8252 19.4575L14.899 19.6295C14.9462 19.7361 15.0017 19.7698 15.1155 19.7698C16.6979 19.767 18.2775 19.767 19.8571 19.767C19.9407 19.767 19.9823 19.767 19.9954 19.7475C20.0083 19.7282 19.9931 19.6896 19.9626 19.6126C19.5351 18.5572 19.0576 17.527 18.5635 16.5025C18.5246 16.4211 18.4746 16.3986 18.3913 16.4014C18.3594 16.4017 18.3275 16.4019 18.2956 16.402C18.222 16.4021 18.1484 16.4016 18.0748 16.4012C17.9166 16.4002 17.7584 16.3992 17.6001 16.4042C17.4919 16.4098 17.4308 16.3761 17.3781 16.2723C16.9727 15.4919 16.362 14.953 15.5181 14.7003C15.512 14.6985 15.5054 14.6973 15.4986 14.6961ZM13.1972 9.42316C12.5504 9.41474 11.2567 9.42035 11.2567 9.42035C11.2567 9.42035 9.60584 9.41754 9.14911 9.41754C9.07472 9.41754 9.07472 9.45404 9.07472 9.53825C9.0775 10.4281 9.0775 11.3207 9.07472 12.2133C9.07472 12.32 9.10804 12.3481 9.21075 12.3481C10.5322 12.3453 11.8536 12.3481 13.175 12.3425C13.6331 12.3397 14.0245 12.1656 14.3438 11.84C14.8768 11.2954 14.8796 10.4758 14.3493 9.92842C14.0329 9.60561 13.647 9.42877 13.1972 9.42316Z" fill="#EA298A"/>
<path d="M12.8613 23.854C12.8613 23.9607 12.8863 24 13.0001 24C14.0578 23.9972 15.1155 23.9972 16.1732 24C16.2787 24 16.3037 23.9635 16.3037 23.8625C16.3009 22.8182 16.2982 21.7712 16.3037 20.7242C16.3037 20.6007 16.2621 20.5782 16.151 20.5782C15.8873 20.5811 15.6243 20.5811 15.3612 20.5811C15.0982 20.5811 14.8351 20.5811 14.5714 20.5839C14.4659 20.5867 14.4187 20.5502 14.3771 20.4547C14.1272 19.8821 13.8746 19.3095 13.6164 18.7425C13.4443 18.3607 13.2639 17.9818 13.0085 17.6449C12.8197 17.3923 12.5754 17.2491 12.2561 17.2379C11.8503 17.224 11.4444 17.2237 11.039 17.2234C10.7096 17.2232 10.3805 17.223 10.0519 17.2154C9.902 17.2126 9.8798 17.266 9.8798 17.3979C9.88535 18.4056 9.8798 19.4161 9.88535 20.4239C9.88535 20.5446 9.85481 20.5839 9.72989 20.5811C9.24153 20.5754 8.74968 20.5867 8.26133 20.5754C8.11419 20.5726 8.0781 20.6203 8.08921 20.7579C8.10031 20.9039 8.10031 21.0498 8.08921 21.193C8.08088 21.3277 8.12252 21.367 8.25855 21.367C9.29126 21.3614 10.3267 21.3614 11.3622 21.367C11.4955 21.367 11.5344 21.3333 11.5344 21.1958C11.5288 20.3172 11.5316 19.4386 11.5288 18.56C11.5288 18.4477 11.5621 18.414 11.6704 18.4168C12.0118 18.4253 12.3533 18.4253 12.6948 18.4168C12.828 18.414 12.8669 18.4477 12.8669 18.5853C12.8557 20.3453 12.8669 22.0997 12.8613 23.854Z" fill="#EA298A"/>
<path d="M9.86036 4.78596C9.96585 4.78876 10.0103 4.7607 10.0047 4.64561C10.0006 4.55854 10.0013 4.47147 10.0019 4.38475C10.0026 4.29814 10.0033 4.21187 9.99917 4.12631C9.99362 3.99999 10.0269 3.95228 10.1602 3.95789C10.2777 3.96383 10.3953 3.96269 10.5129 3.96156C10.6174 3.96054 10.7219 3.95954 10.8264 3.9635C10.9375 3.96631 10.968 3.92982 10.968 3.82035C10.9625 3.3628 10.9625 2.90526 10.968 2.44771C10.9708 2.33262 10.9375 2.29894 10.8209 2.29894C9.77153 2.30455 8.72493 2.30455 7.67557 2.29894C7.54786 2.29894 7.52288 2.34104 7.52566 2.45894C7.53121 2.91628 7.52566 3.37423 7.52843 3.83157C7.53121 3.92982 7.50067 3.9635 7.40351 3.9607C7.28552 3.95649 7.16754 3.95718 7.04955 3.95788C6.93157 3.95859 6.81359 3.95929 6.6956 3.95508C6.58178 3.95228 6.55402 3.99438 6.55679 4.10105C6.56512 4.28069 6.5679 4.45754 6.55679 4.63438C6.54847 4.7635 6.59844 4.78876 6.71503 4.78876C7.76216 4.7775 8.81013 4.78037 9.86036 4.78596Z" fill="#EA298A"/>
<path d="M10.0131 11.534C9.92144 11.5368 9.8798 11.5116 9.88257 11.4105C9.88813 11.0568 9.88535 10.7003 9.88257 10.3467C9.88257 10.254 9.90756 10.2147 10.0075 10.2147C10.3712 10.2203 10.7376 10.2203 11.1013 10.2203C11.1873 10.2203 11.2123 10.2512 11.2123 10.3354C11.2096 10.6947 11.2096 11.054 11.2123 11.4133C11.2123 11.506 11.1846 11.5368 11.093 11.534C10.7321 11.5177 10.374 11.5224 10.0131 11.534Z" fill="#EA298A"/>
</svg>
