<svg width="200" height="36" viewBox="0 0 200 36" fill="none" xmlns="http://www.w3.org/2000/svg">
<path d="M38.472 18L30.8746 13.5L39.9914 8.1L52.5271 15.525V20.475L39.9914 27.9L30.8746 22.5L38.472 18Z" fill="url(#paint0_linear_4863_1757)"/>
<path d="M21.7577 22.5L14.1604 18L21.7577 13.5L12.6409 8.1L0.105225 15.525V20.475L12.6409 27.9L21.7577 22.5Z" fill="url(#paint1_linear_4863_1757)"/>
<path d="M26.3162 27L33.9135 31.5L26.3162 36L18.7188 31.5L26.3162 27Z" fill="url(#paint2_linear_4863_1757)"/>
<path d="M33.9135 4.5L26.3162 0L18.7188 4.5L26.3162 9L33.9135 4.5Z" fill="url(#paint3_linear_4863_1757)"/>
<path d="M75.607 25.5383C74.0772 25.5383 72.6947 25.1999 71.4596 24.5231C70.2386 23.8463 69.2772 22.9175 68.5754 21.7367C67.8877 20.5415 67.5438 19.2023 67.5438 17.7191C67.5438 16.2359 67.8877 14.9039 68.5754 13.7231C69.2772 12.5279 70.2386 11.5919 71.4596 10.9151C72.6947 10.2383 74.0772 9.8999 75.607 9.8999C77.1368 9.8999 78.5122 10.2383 79.7333 10.9151C80.9544 11.5919 81.9158 12.5279 82.6175 13.7231C83.3193 14.9039 83.6701 16.2359 83.6701 17.7191C83.6701 19.2023 83.3193 20.5415 82.6175 21.7367C81.9158 22.9175 80.9544 23.8463 79.7333 24.5231C78.5122 25.1999 77.1368 25.5383 75.607 25.5383ZM75.607 22.5575C76.4772 22.5575 77.2631 22.3559 77.9649 21.9527C78.6666 21.5351 79.214 20.9591 79.607 20.2247C80.014 19.4903 80.2175 18.6551 80.2175 17.7191C80.2175 16.7831 80.014 15.9479 79.607 15.2135C79.214 14.4791 78.6666 13.9103 77.9649 13.5071C77.2631 13.0895 76.4772 12.8807 75.607 12.8807C74.7368 12.8807 73.9508 13.0895 73.2491 13.5071C72.5473 13.9103 71.9929 14.4791 71.5859 15.2135C71.1929 15.9479 70.9965 16.7831 70.9965 17.7191C70.9965 18.6551 71.1929 19.4903 71.5859 20.2247C71.9929 20.9591 72.5473 21.5351 73.2491 21.9527C73.9508 22.3559 74.7368 22.5575 75.607 22.5575Z" fill="#1E2134"/>
<path d="M92.2754 13.4855C93.328 13.4855 94.2824 13.7375 95.1386 14.2415C96.0087 14.7311 96.6894 15.4295 97.1807 16.3367C97.6719 17.2295 97.9175 18.2735 97.9175 19.4687C97.9175 20.6639 97.6719 21.7151 97.1807 22.6223C96.6894 23.5151 96.0087 24.2135 95.1386 24.7175C94.2824 25.2071 93.328 25.4519 92.2754 25.4519C90.8298 25.4519 89.6929 24.9839 88.8649 24.0479V29.4695H85.5807V13.6583H88.7175V14.9975C89.5315 13.9895 90.7175 13.4855 92.2754 13.4855ZM91.707 22.6871C92.5491 22.6871 93.2368 22.3991 93.7701 21.8231C94.3175 21.2327 94.5912 20.4479 94.5912 19.4687C94.5912 18.4895 94.3175 17.7119 93.7701 17.1359C93.2368 16.5455 92.5491 16.2503 91.707 16.2503C90.8649 16.2503 90.1701 16.5455 89.6228 17.1359C89.0894 17.7119 88.8228 18.4895 88.8228 19.4687C88.8228 20.4479 89.0894 21.2327 89.6228 21.8231C90.1701 22.3991 90.8649 22.6871 91.707 22.6871Z" fill="#1E2134"/>
<path d="M110.79 19.5119C110.79 19.5551 110.769 19.8575 110.727 20.4191H102.158C102.313 21.1391 102.677 21.7079 103.253 22.1255C103.828 22.5431 104.544 22.7519 105.4 22.7519C105.99 22.7519 106.509 22.6655 106.958 22.4927C107.421 22.3055 107.849 22.0175 108.242 21.6287L109.99 23.5727C108.923 24.8255 107.365 25.4519 105.316 25.4519C104.039 25.4519 102.909 25.1999 101.927 24.6959C100.944 24.1775 100.186 23.4647 99.6529 22.5575C99.1195 21.6503 98.8529 20.6207 98.8529 19.4687C98.8529 18.3311 99.1125 17.3087 99.6318 16.4015C100.165 15.4799 100.888 14.7671 101.8 14.2631C102.727 13.7447 103.758 13.4855 104.895 13.4855C106.004 13.4855 107.007 13.7303 107.906 14.2199C108.804 14.7095 109.506 15.4151 110.011 16.3367C110.53 17.2439 110.79 18.3023 110.79 19.5119ZM104.916 16.0343C104.172 16.0343 103.548 16.2503 103.042 16.6823C102.537 17.1143 102.228 17.7047 102.116 18.4535H107.695C107.583 17.7191 107.274 17.1359 106.769 16.7039C106.263 16.2575 105.646 16.0343 104.916 16.0343Z" fill="#1E2134"/>
<path d="M119.439 13.4855C120.843 13.4855 121.973 13.9175 122.829 14.7815C123.699 15.6455 124.134 16.9271 124.134 18.6263V25.2791H120.85V19.1447C120.85 18.2231 120.653 17.5391 120.26 17.0927C119.867 16.6319 119.299 16.4015 118.555 16.4015C117.727 16.4015 117.067 16.6679 116.576 17.2007C116.085 17.7191 115.839 18.4967 115.839 19.5335V25.2791H112.555V13.6583H115.692V15.0191C116.127 14.5295 116.667 14.1551 117.313 13.8959C117.959 13.6223 118.667 13.4855 119.439 13.4855Z" fill="#1E2134"/>
<path d="M131.764 25.5383C130.599 25.5383 129.469 25.3799 128.374 25.0631C127.294 24.7319 126.423 24.3071 125.764 23.7887L126.922 21.1535C127.553 21.6287 128.304 22.0103 129.174 22.2983C130.044 22.5863 130.915 22.7303 131.785 22.7303C132.753 22.7303 133.469 22.5863 133.932 22.2983C134.395 21.9959 134.627 21.5999 134.627 21.1103C134.627 20.7503 134.487 20.4551 134.206 20.2247C133.939 19.9799 133.588 19.7855 133.153 19.6415C132.732 19.4975 132.157 19.3391 131.427 19.1663C130.304 18.8927 129.385 18.6191 128.669 18.3455C127.953 18.0719 127.336 17.6327 126.816 17.0279C126.311 16.4231 126.058 15.6167 126.058 14.6087C126.058 13.7303 126.29 12.9383 126.753 12.2327C127.216 11.5127 127.911 10.9439 128.837 10.5263C129.778 10.1087 130.922 9.8999 132.269 9.8999C133.209 9.8999 134.129 10.0151 135.027 10.2455C135.925 10.4759 136.711 10.8071 137.385 11.2391L136.332 13.8959C134.971 13.1039 133.609 12.7079 132.248 12.7079C131.294 12.7079 130.585 12.8663 130.122 13.1831C129.673 13.4999 129.448 13.9175 129.448 14.4359C129.448 14.9543 129.708 15.3431 130.227 15.6023C130.76 15.8471 131.567 16.0919 132.648 16.3367C133.771 16.6103 134.69 16.8839 135.406 17.1575C136.122 17.4311 136.732 17.8631 137.237 18.4535C137.757 19.0439 138.016 19.8431 138.016 20.8511C138.016 21.7151 137.778 22.5071 137.301 23.2271C136.837 23.9327 136.136 24.4943 135.195 24.9119C134.255 25.3295 133.111 25.5383 131.764 25.5383Z" fill="#1E2134"/>
<path d="M151.189 13.6583V29.4695H147.905V24.0479C147.091 24.9839 145.961 25.4519 144.515 25.4519C143.449 25.4519 142.48 25.2071 141.61 24.7175C140.754 24.2279 140.08 23.5295 139.589 22.6223C139.098 21.7151 138.852 20.6639 138.852 19.4687C138.852 18.2735 139.098 17.2223 139.589 16.3151C140.08 15.4079 140.754 14.7095 141.61 14.2199C142.48 13.7303 143.449 13.4855 144.515 13.4855C146.059 13.4855 147.238 13.9895 148.052 14.9975V13.6583H151.189ZM145.084 22.6871C145.912 22.6871 146.599 22.3991 147.147 21.8231C147.694 21.2327 147.968 20.4479 147.968 19.4687C147.968 18.4895 147.694 17.7119 147.147 17.1359C146.599 16.5455 145.912 16.2503 145.084 16.2503C144.242 16.2503 143.547 16.5455 142.999 17.1359C142.452 17.7119 142.178 18.4895 142.178 19.4687C142.178 20.4479 142.452 21.2327 142.999 21.8231C143.547 22.3991 144.242 22.6871 145.084 22.6871Z" fill="#1E2134"/>
<path d="M165.219 13.6583V25.2791H162.103V23.8967C161.668 24.4007 161.149 24.7895 160.545 25.0631C159.942 25.3223 159.289 25.4519 158.587 25.4519C157.1 25.4519 155.921 25.0127 155.051 24.1343C154.18 23.2559 153.745 21.9527 153.745 20.2247V13.6583H157.03V19.7279C157.03 21.5999 157.794 22.5359 159.324 22.5359C160.11 22.5359 160.742 22.2767 161.219 21.7583C161.696 21.2255 161.935 20.4407 161.935 19.4039V13.6583H165.219Z" fill="#1E2134"/>
<path d="M172.409 13.4855C174.163 13.4855 175.511 13.9175 176.451 14.7815C177.391 15.6311 177.862 16.9199 177.862 18.6479V25.2791H174.788V23.8319C174.17 24.9119 173.019 25.4519 171.335 25.4519C170.465 25.4519 169.707 25.3007 169.062 24.9983C168.43 24.6959 167.946 24.2783 167.609 23.7455C167.272 23.2127 167.104 22.6079 167.104 21.9311C167.104 20.8511 167.497 20.0015 168.283 19.3823C169.083 18.7631 170.311 18.4535 171.967 18.4535H174.577C174.577 17.7191 174.36 17.1575 173.925 16.7687C173.49 16.3655 172.837 16.1639 171.967 16.1639C171.363 16.1639 170.767 16.2647 170.177 16.4663C169.602 16.6535 169.111 16.9127 168.704 17.2439L167.525 14.8895C168.142 14.4431 168.879 14.0975 169.735 13.8527C170.605 13.6079 171.497 13.4855 172.409 13.4855ZM172.156 23.1839C172.718 23.1839 173.216 23.0543 173.651 22.7951C174.086 22.5215 174.395 22.1255 174.577 21.6071V20.4191H172.325C170.977 20.4191 170.304 20.8727 170.304 21.7799C170.304 22.2119 170.465 22.5575 170.788 22.8167C171.125 23.0615 171.581 23.1839 172.156 23.1839Z" fill="#1E2134"/>
<path d="M183.55 15.1919C183.943 14.6303 184.469 14.2055 185.129 13.9175C185.802 13.6295 186.574 13.4855 187.444 13.4855V16.5959C187.08 16.5671 186.834 16.5527 186.708 16.5527C185.767 16.5527 185.03 16.8263 184.497 17.3735C183.964 17.9063 183.697 18.7127 183.697 19.7927V25.2791H180.413V13.6583H183.55V15.1919Z" fill="#1E2134"/>
<path d="M199.968 19.5119C199.968 19.5551 199.947 19.8575 199.905 20.4191H191.337C191.491 21.1391 191.856 21.7079 192.431 22.1255C193.007 22.5431 193.723 22.7519 194.579 22.7519C195.168 22.7519 195.687 22.6655 196.137 22.4927C196.6 22.3055 197.028 22.0175 197.421 21.6287L199.168 23.5727C198.102 24.8255 196.544 25.4519 194.494 25.4519C193.217 25.4519 192.087 25.1999 191.105 24.6959C190.123 24.1775 189.365 23.4647 188.831 22.5575C188.298 21.6503 188.031 20.6207 188.031 19.4687C188.031 18.3311 188.291 17.3087 188.81 16.4015C189.344 15.4799 190.066 14.7671 190.979 14.2631C191.905 13.7447 192.937 13.4855 194.073 13.4855C195.182 13.4855 196.186 13.7303 197.084 14.2199C197.982 14.7095 198.684 15.4151 199.189 16.3367C199.709 17.2439 199.968 18.3023 199.968 19.5119ZM194.094 16.0343C193.351 16.0343 192.726 16.2503 192.221 16.6823C191.716 17.1143 191.407 17.7047 191.294 18.4535H196.873C196.761 17.7191 196.452 17.1359 195.947 16.7039C195.442 16.2575 194.824 16.0343 194.094 16.0343Z" fill="#1E2134"/>
<defs>
<linearGradient id="paint0_linear_4863_1757" x1="51.4454" y1="18" x2="0.105224" y2="18" gradientUnits="userSpaceOnUse">
<stop stop-color="#04D2C5"/>
<stop offset="1" stop-color="#6848FF"/>
</linearGradient>
<linearGradient id="paint1_linear_4863_1757" x1="51.4454" y1="18" x2="0.105224" y2="18" gradientUnits="userSpaceOnUse">
<stop stop-color="#04D2C5"/>
<stop offset="1" stop-color="#6848FF"/>
</linearGradient>
<linearGradient id="paint2_linear_4863_1757" x1="51.4454" y1="18" x2="0.105224" y2="18" gradientUnits="userSpaceOnUse">
<stop stop-color="#04D2C5"/>
<stop offset="1" stop-color="#6848FF"/>
</linearGradient>
<linearGradient id="paint3_linear_4863_1757" x1="51.4454" y1="18" x2="0.105224" y2="18" gradientUnits="userSpaceOnUse">
<stop stop-color="#04D2C5"/>
<stop offset="1" stop-color="#6848FF"/>
</linearGradient>
</defs>
</svg>
